<?xml version="1.0" encoding="UTF-8" standalone="no"?>
<svg width="12px" height="9px" viewBox="0 0 12 9" version="1.1" xmlns="http://www.w3.org/2000/svg" xmlns:xlink="http://www.w3.org/1999/xlink">
    <!-- Generator: Sketch 43.2 (39069) - http://www.bohemiancoding.com/sketch -->
    <title>Fill 67</title>
    <desc>Created with Sketch.</desc>
    <defs>
        <linearGradient x1="50%" y1="0%" x2="50%" y2="100%" id="linearGradient-1">
            <stop stop-color="#F95959" offset="0%"></stop>
            <stop stop-color="#FC6739" offset="100%"></stop>
        </linearGradient>
    </defs>
    <g id="Symbols" stroke="none" stroke-width="1" fill="none" fill-rule="evenodd" fill-opacity="0.5">
        <g id="Email-Input" transform="translate(-10.000000, -26.000000)" fill="url(#linearGradient-1)">
            <g id="Group-2-Copy-12" transform="translate(0.000000, 15.000000)">
                <path d="M20.8,11 L11.2,11 C10.54,11 10.006,11.50625 10.006,12.125 L10,18.875 C10,19.49375 10.54,20 11.2,20 L20.8,20 C21.46,20 22,19.49375 22,18.875 L22,12.125 C22,11.50625 21.46,11 20.8,11 L20.8,11 Z M20.8,13.25 L16,16.0625 L11.2,13.25 L11.2,12.125 L16,14.9375 L20.8,12.125 L20.8,13.25 L20.8,13.25 Z" id="Fill-67"></path>
            </g>
        </g>
    </g>
</svg>