<?xml version="1.0" encoding="UTF-8" standalone="no"?>
<svg width="47px" height="47px" viewBox="0 0 47 47" version="1.1" xmlns="http://www.w3.org/2000/svg" xmlns:xlink="http://www.w3.org/1999/xlink">
    <!-- Generator: Sketch 43.2 (39069) - http://www.bohemiancoding.com/sketch -->
    <title></title>
    <desc>Created with Sketch.</desc>
    <defs></defs>
    <g id="Page-1" stroke="none" stroke-width="1" fill="none" fill-rule="evenodd">
        <g id="Facile-Dashboard-GRID" transform="translate(-1067.000000, -1062.000000)" fill="#F7F7F7">
            <g id="Group-24-Copy-2" transform="translate(235.000000, 986.000000)">
                <path d="M878.507812,118.601562 C878.507812,119.773443 878.09766,120.769527 877.277344,121.589844 C876.457027,122.41016 875.460943,122.820312 874.289062,122.820312 L836.8125,122.820312 C835.640619,122.820312 834.644535,122.41016 833.824219,121.589844 C833.003902,120.769527 832.59375,119.773443 832.59375,118.601562 L832.59375,81.125 C832.59375,79.9531191 833.003902,78.9570354 833.824219,78.1367188 C834.644535,77.3164021 835.640619,76.90625 836.8125,76.90625 L874.289062,76.90625 C875.460943,76.90625 876.457027,77.3164021 877.277344,78.1367188 C878.09766,78.9570354 878.507812,79.9531191 878.507812,81.125 L878.507812,118.601562 Z M873.914062,114.851562 L873.914062,84.875 C873.914062,83.9374953 873.585941,83.1406283 872.929688,82.484375 C872.273434,81.8281217 871.476567,81.5 870.539062,81.5 L840.539062,81.5 C839.601558,81.5 838.804691,81.8281217 838.148438,82.484375 C837.492184,83.1406283 837.164062,83.9374953 837.164062,84.875 L837.164062,114.851562 C837.164062,115.789067 837.492184,116.585934 838.148438,117.242188 C838.804691,117.898441 839.601558,118.226562 840.539062,118.226562 L870.539062,118.226562 C871.476567,118.226562 872.273434,117.898441 872.929688,117.242188 C873.585941,116.585934 873.914062,115.789067 873.914062,114.851562 Z M865.5,92.2578125 C865.5,93.9765711 865.000005,95.3281201 864,96.3125 C863.749999,96.5468762 862.726571,97.1328078 860.929688,98.0703125 C859.664056,98.7421909 858.960938,99.5859324 858.820312,100.601562 C858.851563,100.382811 858.867188,101.656236 858.867188,104.421875 L852.210938,104.421875 L852.210938,101.375 C852.210938,99.7031166 852.789057,98.3046931 853.945312,97.1796875 C854.054688,97.070312 855.109365,96.2968822 857.109375,94.859375 C858.281256,94.0468709 858.867188,93.1796921 858.867188,92.2578125 C858.867188,91.4453084 858.539066,90.7382843 857.882812,90.1367188 C857.226559,89.5351532 856.445317,89.234375 855.539062,89.234375 L852.210938,89.234375 C850.179677,89.234375 849.078126,90.2421774 848.90625,92.2578125 L845.578125,92.2578125 C846.093753,88.2109173 848.304668,86.1875 852.210938,86.1875 L858.867188,86.1875 C860.710947,86.1875 862.277337,86.7773379 863.566406,87.9570312 C864.855475,89.1367246 865.5,90.5703041 865.5,92.2578125 Z M852.210938,113.515625 L852.210938,107.445312 L858.867188,107.445312 L858.867188,113.515625 L852.210938,113.515625 Z" id=""></path>
            </g>
        </g>
    </g>
</svg>