<?xml version="1.0" encoding="UTF-8" standalone="no"?>
<svg width="13px" height="15px" viewBox="0 0 13 15" version="1.1" xmlns="http://www.w3.org/2000/svg" xmlns:xlink="http://www.w3.org/1999/xlink">
    <!-- Generator: Sketch 43.2 (39069) - http://www.bohemiancoding.com/sketch -->
    <title>Group</title>
    <desc>Created with Sketch.</desc>
    <defs></defs>
    <g id="Symbols" stroke="none" stroke-width="1" fill="none" fill-rule="evenodd">
        <g id="Date-Picker-Default" transform="translate(-217.000000, -24.000000)" fill="#FFFFFF">
            <g id="Group-12" transform="translate(209.000000, 16.000000)">
                <g id="Group" transform="translate(8.000000, 8.000000)">
                    <path d="M12.732825,5.10551754 L12.732825,3.18068251 L12.732825,2.96984045 C12.732825,1.86684452 11.7941128,0.968247252 10.627725,0.937206474 L10.627725,0.937462164 L10.627725,1.42577911 L10.627725,1.42623935 L10.627725,1.91716433 L10.627725,1.91813595 L10.627725,2.19704271 C10.627725,2.91292384 10.0661546,3.4952836 9.37597724,3.4952836 C8.68575059,3.4952836 8.12418018,2.91292384 8.12418018,2.19704271 L8.12418018,1.91159029 L8.12418018,1.4228131 L8.12418018,0.934035917 L4.57466856,0.934035917 L4.57466856,1.4228131 L4.57466856,1.91159029 L4.57466856,2.19704271 C4.57466856,2.91292384 4.01309815,3.4952836 3.32282219,3.4952836 C2.63259554,3.4952836 2.07107444,2.91292384 2.07107444,2.19704271 L2.07107444,1.92232927 L2.07107444,1.92064172 L2.07107444,1.42813146 L2.07107444,1.42767121 L2.07107444,0.939405409 L2.07107444,0.938894029 C0.923967757,0.989264977 0.00645993362,1.87962903 0.00645993362,2.96958476 L0.00645993362,3.18042681 L0.00645993362,5.10526185 L0.00645993362,11.8847824 C0.00645993362,13.123243 0.978359412,14.1313779 2.17270744,14.1313779 L10.5664789,14.1313779 C11.760679,14.1313779 12.7326278,13.123243 12.7326278,11.8847824 L12.7326278,5.10551754 L12.732825,5.10551754 L12.732825,5.10551754 Z M11.7901185,11.8850381 C11.7901185,12.5848108 11.2412214,13.1538235 10.5664789,13.1538235 L2.17295401,13.1538235 C1.49826079,13.1538235 0.949412992,12.5848108 0.949412992,11.8850381 L0.949412992,5.10551754 L11.7901185,5.10551754 L11.7901185,11.8850381 L11.7901185,11.8850381 Z" id="Shape"></path>
                    <path d="M2.77821527,0.565023972 L2.77821527,0.933984779 L2.77821527,1.42276196 L2.77821527,1.91153915 L2.77821527,2.19699157 C2.77821527,2.50913804 3.02206543,2.76201554 3.32306875,2.76201554 C3.62397345,2.76201554 3.86792224,2.50913804 3.86792224,2.19699157 L3.86792224,1.91153915 L3.86792224,1.42276196 L3.86792224,0.933984779 L3.86792224,0.565023972 C3.86797155,0.252877504 3.62402276,0 3.32311807,0 C3.02206543,0.000255690095 2.77821527,0.253133194 2.77821527,0.565023972 L2.77821527,0.565023972 Z" id="Shape"></path>
                    <path d="M8.83117307,0.565279662 L8.83117307,0.934240469 L8.83117307,1.42301765 L8.83117307,1.91179484 L8.83117307,2.19724726 C8.83117307,2.50939373 9.07507255,2.76227123 9.37612518,2.76227123 C9.67717781,2.76227123 9.9211266,2.50939373 9.9211266,2.19724726 L9.9211266,1.91153915 L9.9211266,1.42276196 L9.9211266,0.933984779 L9.9211266,0.565023972 C9.92068279,0.253133194 9.67698056,0.000255690094 9.37612518,0.000255690094 C9.07512186,0.000255690094 8.83117307,0.253133194 8.83117307,0.565279662 Z" id="Shape"></path>
                </g>
            </g>
        </g>
    </g>
</svg>