<?xml version="1.0" encoding="UTF-8" standalone="no"?>
<svg width="12px" height="12px" viewBox="0 0 12 12" version="1.1" xmlns="http://www.w3.org/2000/svg" xmlns:xlink="http://www.w3.org/1999/xlink">
    <!-- Generator: Sketch 43.2 (39069) - http://www.bohemiancoding.com/sketch -->
    <title>Fill 83</title>
    <desc>Created with Sketch.</desc>
    <defs></defs>
    <g id="Page-1" stroke="none" stroke-width="1" fill="none" fill-rule="evenodd">
        <g id="Facile-Tables" transform="translate(-840.000000, -960.000000)" fill="#F95959">
            <g id="Group-12-Copy-20" transform="translate(835.000000, 952.000000)">
                <path d="M11.6,11 L10.4,11 L10.4,13.4 L8,13.4 L8,14.6 L10.4,14.6 L10.4,17 L11.6,17 L11.6,14.6 L14,14.6 L14,13.4 L11.6,13.4 L11.6,11 L11.6,11 Z M11,8 C7.688,8 5,10.688 5,14 C5,17.312 7.688,20 11,20 C14.312,20 17,17.312 17,14 C17,10.688 14.312,8 11,8 L11,8 Z M11,18.8 C8.354,18.8 6.2,16.646 6.2,14 C6.2,11.354 8.354,9.2 11,9.2 C13.646,9.2 15.8,11.354 15.8,14 C15.8,16.646 13.646,18.8 11,18.8 L11,18.8 Z" id="Fill-83"></path>
            </g>
        </g>
    </g>
</svg>