<?xml version="1.0" encoding="UTF-8" standalone="no"?>
<svg width="23px" height="23px" viewBox="0 0 23 23" version="1.1" xmlns="http://www.w3.org/2000/svg" xmlns:xlink="http://www.w3.org/1999/xlink">
    <!-- Generator: Sketch 43.2 (39069) - http://www.bohemiancoding.com/sketch -->
    <title>Group 15</title>
    <desc>Created with Sketch.</desc>
    <defs></defs>
    <g id="Page-1" stroke="none" stroke-width="1" fill="none" fill-rule="evenodd">
        <g id="Facile-Toastr-Success" transform="translate(-30.000000, -853.000000)" fill="#FFFFFF">
            <g id="Group" transform="translate(15.000000, 836.000000)">
                <g id="Group-15" transform="translate(15.000000, 17.000000)">
                    <path d="M18,20 C18,20.552 17.552,21 17,21 L3,21 C2.448,21 2,20.552 2,20 L2,6 C2,5.448 2.448,5 3,5 L17,5 C17.552,5 18,5.448 18,6 L18,20 Z M20,9.68914884 L20,21.003 C20,22.108 19.105,23 18,23 L2,23 C0.895,23 0,22.112 0,21.007 L0,5.007 L0,5.003 C0,3.899 0.895,3 2,3 L14.668416,3 L13,4.99117997 L18.0011689,4.99117997 L18.0011689,12.0456734 L20,9.68914884 Z" id="Combined-Shape"></path>
                    <path d="M21.6354101,3.66607971 L11.090676,16.5167288 C10.4656348,17.1610904 9.45171952,17.1610904 8.82608615,16.5167288 L4.46895854,12.0254445 C3.84368049,11.3810829 3.84368049,10.3359026 4.46895854,9.69141886 C5.09435503,9.04681305 6.1081914,9.04681305 6.73331154,9.69117471 L9.95871666,13.0156903 L19.3707018,1.33193197 C19.9960983,0.687326147 21.0100136,0.687814454 21.6351732,1.33193197 C22.2603328,1.97641571 22.2603328,3.02122973 21.6354101,3.66607971 Z" id="Path"></path>
                </g>
            </g>
        </g>
    </g>
</svg>