<?xml version="1.0" encoding="UTF-8" standalone="no"?>
<svg width="20px" height="20px" viewBox="0 0 20 20" version="1.1" xmlns="http://www.w3.org/2000/svg" xmlns:xlink="http://www.w3.org/1999/xlink">
    <!-- Generator: Sketch 43.2 (39069) - http://www.bohemiancoding.com/sketch -->
    <title>Combined Shape</title>
    <desc>Created with Sketch.</desc>
    <defs></defs>
    <g id="Page-1" stroke="none" stroke-width="1" fill="none" fill-rule="evenodd">
        <g id="Facile-Toastr-Information" transform="translate(-30.000000, -856.000000)" fill="#FFFFFF">
            <g id="Group" transform="translate(15.000000, 836.000000)">
                <g id="Group-15" transform="translate(15.000000, 20.000000)">
                    <path d="M18,17 C18,17.552 17.552,18 17,18 L3,18 C2.448,18 2,17.552 2,17 L2,3 C2,2.448 2.448,2 3,2 L17,2 C17.552,2 18,2.448 18,3 L18,17 Z M18,0 L2,0 C0.895,0 0,0.899 0,2.003 L0,2.007 L0,18.007 C0,19.112 0.895,20 2,20 L18,20 C19.105,20 20,19.108 20,18.003 L20,2.007 C20,0.902 19,0 18,0 L18,0 Z M11.5861828,5 C11.0030994,5 10.5,5.48646481 10.5,6.08081011 C10.5,6.63505113 10.8579284,7 11.4010198,7 C11.9969006,7 12.5,6.54040505 12.5,5.91878885 C12.5,5.36454782 12.1160768,5 11.5861828,5 L11.5861828,5 Z M11.8369723,12.5029986 C11.6462882,12.5029986 10.8977438,13.7665216 10.4898108,13.7665216 C10.3810044,13.7665216 10.3267831,13.6623942 10.3267831,13.5582667 C10.3267831,13.3207902 10.4763464,12.94873 10.5578603,12.7260701 L11.5374818,9.82819849 C12.0272926,8.38646519 11.4013828,8 10.8165939,8 C10.0272926,8 9.319869,8.43091486 8.77583697,8.99600188 C8.59861718,9.18902869 8,9.81297037 8,10.0804915 C8,10.1698024 8.08151383,10.2739299 8.1772198,10.2739299 C8.42139738,10.2739299 9.07496361,8.98118532 9.57823872,8.98118532 C9.68704512,8.98118532 9.80967977,9.11494591 9.7143377,9.3820555 L8.76237263,11.9975894 C8.66666667,12.2507056 8.20414847,13.4693674 8.20414847,14.1826199 C8.20414847,14.7472954 8.54439592,15 9.0342067,15 C10.4082969,15 12,13.1569849 12,12.7260701 C12,12.5923095 11.9050218,12.5029986 11.8369723,12.5029986 L11.8369723,12.5029986 Z" id="Combined-Shape"></path>
                </g>
            </g>
        </g>
    </g>
</svg>