<?xml version="1.0" encoding="UTF-8" standalone="no"?>
<svg width="58px" height="58px" viewBox="0 0 58 58" version="1.1" xmlns="http://www.w3.org/2000/svg" xmlns:xlink="http://www.w3.org/1999/xlink">
    <!-- Generator: Sketch 43.2 (39069) - http://www.bohemiancoding.com/sketch -->
    <title>bag</title>
    <desc>Created with Sketch.</desc>
    <defs></defs>
    <g id="Page-1" stroke="none" stroke-width="1" fill="none" fill-rule="evenodd">
        <g id="Facile-Dashboard-GRID" transform="translate(-553.000000, -219.000000)" fill="#F95959">
            <g id="Group-24" transform="translate(235.000000, 150.000000)">
                <path d="M369.215207,84.1869078 C369.065543,83.1877692 368.217444,82.4883721 367.21968,82.4883721 L355.745398,82.4883721 L355.745398,77.7924203 C355.745398,72.9465978 351.804232,69 346.965078,69 C342.125925,69 338.184758,72.9465978 338.184758,77.7924203 L338.184758,82.4883721 L326.710477,82.4883721 C325.712713,82.4883721 324.864614,83.1877692 324.714949,84.1869078 L318.029933,124.652024 C317.930157,125.251507 318.079821,125.850991 318.478927,126.300603 C318.878032,126.750215 319.426802,127 320.02546,127 L373.904696,127 L373.954585,127 C375.102013,127 376,126.100775 376,124.951766 C376,124.701981 375.950112,124.502153 375.900224,124.302326 L369.215207,84.1869078 L369.215207,84.1869078 Z M342.275589,77.7924203 C342.275589,75.1946598 344.370893,73.0964686 346.965078,73.0964686 C349.559264,73.0964686 351.654567,75.1946598 351.654567,77.7924203 L351.654567,82.4883721 L342.275589,82.4883721 L342.275589,77.7924203 L342.275589,77.7924203 Z M322.420093,122.953488 L328.456563,86.5848407 L338.184758,86.5848407 L338.184758,98.0249785 C338.184758,99.1739879 339.082746,100.073213 340.230174,100.073213 C341.377602,100.073213 342.275589,99.1739879 342.275589,98.0249785 L342.275589,86.5848407 L351.654567,86.5848407 L351.654567,98.0249785 C351.654567,99.1739879 352.552555,100.073213 353.699983,100.073213 C354.847411,100.073213 355.745398,99.1739879 355.745398,98.0249785 L355.745398,86.5848407 L365.473594,86.5848407 L371.510064,122.953488 L322.420093,122.953488 L322.420093,122.953488 Z" id="bag"></path>
            </g>
        </g>
    </g>
</svg>