<?xml version="1.0" encoding="UTF-8" standalone="no"?>
<svg width="58px" height="58px" viewBox="0 0 58 58" version="1.1" xmlns="http://www.w3.org/2000/svg" xmlns:xlink="http://www.w3.org/1999/xlink">
    <!-- Generator: Sketch 43.2 (39069) - http://www.bohemiancoding.com/sketch -->
    <title>stats</title>
    <desc>Created with Sketch.</desc>
    <defs></defs>
    <g id="Page-1" stroke="none" stroke-width="1" fill="none" fill-rule="evenodd">
        <g id="Facile-Dashboard-GRID" transform="translate(-255.000000, -219.000000)" fill="#F7F7F7">
            <g id="Group-24" transform="translate(235.000000, 150.000000)">
                <path d="M75.9517657,122.903531 C77.1007752,122.903531 78,123.802756 78,124.951766 C78,126.100775 77.1007752,127 75.9517657,127 L22.0482343,127 C20.8992248,127 20,126.100775 20,124.951766 L20,71.0482343 C20,69.8992248 20.8992248,69 22.0482343,69 C23.1972438,69 24.0964686,69.8992248 24.0964686,71.0482343 L24.0964686,122.903531 L75.9517657,122.903531 Z M43.9293712,115.010336 C43.9293712,116.159345 43.0301464,117.05857 41.881137,117.05857 C40.7321275,117.05857 39.8329027,116.159345 39.8329027,115.010336 L39.8329027,85.535745 C39.8329027,84.3867356 40.7321275,83.4875108 41.881137,83.4875108 C43.0301464,83.4875108 43.9293712,84.3867356 43.9293712,85.535745 L43.9293712,115.010336 Z M34.0378984,115.010336 C34.0378984,116.159345 33.1386736,117.05857 31.9896641,117.05857 C30.8406546,117.05857 29.9414298,116.159345 29.9414298,115.010336 L29.9414298,85.535745 C29.9414298,84.3867356 30.8406546,83.4875108 31.9896641,83.4875108 C33.1386736,83.4875108 34.0378984,84.3867356 34.0378984,85.535745 L34.0378984,115.010336 Z M63.712317,115.010336 C63.712317,116.159345 62.8130922,117.05857 61.6640827,117.05857 C60.5150732,117.05857 59.6158484,116.159345 59.6158484,115.010336 L59.6158484,85.535745 C59.6158484,84.3867356 60.5150732,83.4875108 61.6640827,83.4875108 C62.8130922,83.4875108 63.712317,84.3867356 63.712317,85.535745 L63.712317,115.010336 Z M73.6037898,115.010336 C73.6037898,116.159345 72.704565,117.05857 71.5555556,117.05857 C70.4065461,117.05857 69.5073213,116.159345 69.5073213,115.010336 L69.5073213,100.27304 C69.5073213,99.124031 70.4065461,98.2248062 71.5555556,98.2248062 C72.704565,98.2248062 73.6037898,99.124031 73.6037898,100.27304 L73.6037898,115.010336 Z M53.8208441,115.010336 C53.8208441,116.159345 52.9216193,117.05857 51.7726098,117.05857 C50.6236003,117.05857 49.7243755,116.159345 49.7243755,115.010336 L49.7243755,100.27304 C49.7243755,99.124031 50.6236003,98.2248062 51.7726098,98.2248062 C52.9216193,98.2248062 53.8208441,99.124031 53.8208441,100.27304 L53.8208441,115.010336 Z" id="stats"></path>
            </g>
        </g>
    </g>
</svg>