<?xml version="1.0" encoding="UTF-8" standalone="no"?>
<svg width="58px" height="58px" viewBox="0 0 58 58" version="1.1" xmlns="http://www.w3.org/2000/svg" xmlns:xlink="http://www.w3.org/1999/xlink">
    <!-- Generator: Sketch 43.2 (39069) - http://www.bohemiancoding.com/sketch -->
    <title>speedometer</title>
    <desc>Created with Sketch.</desc>
    <defs></defs>
    <g id="Page-1" stroke="none" stroke-width="1" fill="none" fill-rule="evenodd">
        <g id="Facile-Dashboard-GRID" transform="translate(-1149.000000, -219.000000)" fill="#FFFFFF">
            <g id="Group-24" transform="translate(235.000000, 150.000000)">
                <path d="M963.5,77.4 C963.45,77.35 963.35,77.3 963.3,77.25 C958.05,72.15 950.9,69 943,69 C935.1,69 927.95,72.2 922.7,77.35 C922.65,77.4 922.6,77.4 922.5,77.45 C922.45,77.5 922.45,77.55 922.4,77.6 C917.2,82.8 914,90.05 914,98 C914,114 927,127 943,127 C959,127 972,114 972,98 C972,90.05 968.8,82.85 963.6,77.6 C963.55,77.55 963.55,77.45 963.5,77.4 L963.5,77.4 Z M943,122.95 C929.95,122.95 919.2,112.85 918.15,100.05 L935.9,100.05 C936.8,103.1 939.6,105.35 942.95,105.35 C946.3,105.35 949.15,103.1 950,100.05 L967.75,100.05 C966.8,112.85 956.05,122.95 943,122.95 L943,122.95 Z M939.75,98 C939.75,96.2 941.2,94.75 943,94.75 C944.8,94.75 946.25,96.2 946.25,98 C946.25,99.8 944.8,101.25 943,101.25 C941.2,101.25 939.75,99.8 939.75,98 L939.75,98 Z M950.05,95.95 C949.65,94.5 948.8,93.25 947.7,92.35 L953.25,79.7 C953.7,78.65 953.25,77.45 952.2,77 C951.15,76.55 949.95,77 949.5,78.05 L943.95,90.7 C943.65,90.65 943.3,90.65 943,90.65 C939.65,90.65 936.85,92.9 935.95,95.95 L918.15,95.95 C918.6,90.6 920.7,85.7 924.05,81.85 L927.9,85.7 C928.3,86.1 928.8,86.3 929.35,86.3 C929.85,86.3 930.4,86.1 930.8,85.7 C931.6,84.9 931.6,83.6 930.8,82.8 L926.95,78.95 C930.8,75.7 935.65,73.6 940.95,73.15 L940.95,78.6 C940.95,79.75 941.85,80.65 943,80.65 C944.15,80.65 945.05,79.75 945.05,78.6 L945.05,73.15 C950.35,73.6 955.2,75.7 959.05,78.95 L955.25,82.8 C954.45,83.6 954.45,84.9 955.25,85.7 C955.65,86.1 956.15,86.3 956.7,86.3 C957.2,86.3 957.75,86.1 958.15,85.7 L962,81.85 C965.3,85.7 967.45,90.6 967.85,95.95 L950.05,95.95 L950.05,95.95 Z" id="speedometer"></path>
            </g>
        </g>
    </g>
</svg>