<?xml version="1.0" encoding="UTF-8" standalone="no"?>
<svg width="13px" height="13px" viewBox="0 0 13 13" version="1.1" xmlns="http://www.w3.org/2000/svg" xmlns:xlink="http://www.w3.org/1999/xlink">
    <g id="Page-1" stroke="none" stroke-width="1" fill="none" fill-rule="evenodd">
        <g id="Facile-Dashboard-GRID" transform="translate(-498.000000, -266.000000)" stroke="#F95959">
            <g id="Group-24" transform="translate(235.000000, 150.000000)">
                <g id="arrow-point-to-right" transform="translate(269.500000, 122.500000) rotate(-90.000000) translate(-269.500000, -122.500000) translate(264.000000, 117.000000)">
                    <path d="M7.04753135,5.71782263 L4.97594156,7.60969399 C4.84416343,7.730102 4.63050777,7.730102 4.49879362,7.60969399 C4.36706879,7.48939309 4.36706879,7.2942766 4.49879362,7.17398544 L6.33183076,5.49996835 L4.49884693,3.82600969 C4.36712211,3.7056601 4.36712211,3.51056309 4.49884693,3.39026219 C4.63057175,3.2699126 4.84421674,3.2699126 4.97599487,3.39026219 L7.04758466,5.28216277 C7.11344708,5.34234243 7.14634096,5.42113105 7.14634096,5.49995861 C7.14634096,5.57882513 7.1133831,5.65767218 7.04753135,5.71782263 Z" id="Shape" stroke-width="0.5" fill="#F7F7F7" fill-rule="nonzero" transform="translate(5.773170, 5.500000) rotate(-270.000000) translate(-5.773170, -5.500000) "></path>
                    <circle id="Oval-2" cx="5.5" cy="5.5" r="5.5"></circle>
                </g>
            </g>
        </g>
    </g>
</svg>