<?xml version="1.0" encoding="UTF-8" standalone="no"?>
<svg width="10px" height="12px" viewBox="0 0 10 12" version="1.1" xmlns="http://www.w3.org/2000/svg" xmlns:xlink="http://www.w3.org/1999/xlink">
    <!-- Generator: Sketch 43.2 (39069) - http://www.bohemiancoding.com/sketch -->
    <title>Fill 124</title>
    <desc>Created with Sketch.</desc>
    <defs>
        <linearGradient x1="50%" y1="0%" x2="50%" y2="100%" id="linearGradient-1">
            <stop stop-color="#F95959" offset="0%"></stop>
            <stop stop-color="#FC6739" offset="100%"></stop>
        </linearGradient>
    </defs>
    <g id="Symbols" stroke="none" stroke-width="1" fill="none" fill-rule="evenodd" fill-opacity="0.5">
        <g id="Password-Input" transform="translate(-12.000000, -24.000000)" fill="url(#linearGradient-1)">
            <path d="M20.75,28 L20.125,28 L20.125,26.8571429 C20.125,25.28 18.725,24 17,24 C15.275,24 13.875,25.28 13.875,26.8571429 L13.875,28 L13.25,28 C12.5625,28 12,28.5142857 12,29.1428571 L12,34.8571429 C12,35.4857143 12.5625,36 13.25,36 L20.75,36 C21.4375,36 22,35.4857143 22,34.8571429 L22,29.1428571 C22,28.5142857 21.4375,28 20.75,28 L20.75,28 Z M17,33.1428571 C16.3125,33.1428571 15.75,32.6285714 15.75,32 C15.75,31.3714286 16.3125,30.8571429 17,30.8571429 C17.6875,30.8571429 18.25,31.3714286 18.25,32 C18.25,32.6285714 17.6875,33.1428571 17,33.1428571 L17,33.1428571 Z M18.9375,28 L15.0625,28 L15.0625,26.8571429 C15.0625,25.88 15.93125,25.0857143 17,25.0857143 C18.06875,25.0857143 18.9375,25.88 18.9375,26.8571429 L18.9375,28 L18.9375,28 Z" id="Fill-124"></path>
        </g>
    </g>
</svg>