<?xml version="1.0" encoding="UTF-8" standalone="no"?>
<svg width="58px" height="49px" viewBox="0 0 58 49" version="1.1" xmlns="http://www.w3.org/2000/svg" xmlns:xlink="http://www.w3.org/1999/xlink">
    <!-- Generator: Sketch 43.2 (39069) - http://www.bohemiancoding.com/sketch -->
    <title>speech-bubble</title>
    <desc>Created with Sketch.</desc>
    <defs></defs>
    <g id="Page-1" stroke="none" stroke-width="1" fill="none" fill-rule="evenodd">
        <g id="Facile-Dashboard-GRID" transform="translate(-851.000000, -228.000000)" fill="#F7F7F7">
            <g id="Group-24" transform="translate(235.000000, 150.000000)">
                <path d="M618.046472,118.25355 C616.948365,118.25355 616,117.359026 616,116.216024 L616,80.0375254 C616,78.8945233 616.898451,78 618.046472,78 L671.953528,78 C673.101549,78 674,78.8945233 674,80.0375254 L674,116.26572 C674,117.408722 673.101549,118.303245 671.953528,118.303245 L638.910499,118.303245 L627.929432,126.602434 C627.580034,126.850913 627.130809,127 626.681583,127 C626.3821,127 626.082616,126.950304 625.783133,126.801217 C625.084337,126.453347 624.635112,125.757606 624.635112,124.962475 L624.635112,118.25355 L618.046472,118.25355 Z M630.275387,95.2444219 C629.127367,95.2444219 628.228916,94.3498986 628.228916,93.2068966 C628.228916,92.0638945 629.127367,91.1693712 630.275387,91.1693712 L659.724613,91.1693712 C660.872633,91.1693712 661.771084,92.0638945 661.771084,93.2068966 C661.771084,94.3498986 660.872633,95.2444219 659.724613,95.2444219 L630.275387,95.2444219 Z M630.275387,105.084178 C629.127367,105.084178 628.228916,104.189655 628.228916,103.046653 C628.228916,101.903651 629.127367,101.009128 630.275387,101.009128 L659.724613,101.009128 C660.872633,101.009128 661.771084,101.903651 661.771084,103.046653 C661.771084,104.189655 660.872633,105.084178 659.724613,105.084178 L630.275387,105.084178 Z M620.092943,82.0750507 L620.092943,82.0750507 L620.092943,114.178499 L626.681583,114.178499 C627.829604,114.178499 628.728055,115.073022 628.728055,116.216024 L628.728055,120.837728 L636.963855,114.576065 C637.313253,114.327586 637.762478,114.178499 638.211704,114.178499 L669.857143,114.178499 L669.857143,82.0750507 L620.092943,82.0750507 Z" id="speech-bubble"></path>
            </g>
        </g>
    </g>
</svg>