<?xml version="1.0" encoding="UTF-8" standalone="no"?>
<svg width="17px" height="17px" viewBox="0 0 17 17" version="1.1" xmlns="http://www.w3.org/2000/svg" xmlns:xlink="http://www.w3.org/1999/xlink">
    <!-- Generator: Sketch 42 (36781) - http://www.bohemiancoding.com/sketch -->
    <title>ico-spinnerorange</title>
    <desc>Created with Sketch.</desc>
    <defs></defs>
    <g id="Other-Elements" stroke="none" stroke-width="1" fill="none" fill-rule="evenodd">
        <g id="Email-Subscribe-Processing" transform="translate(-873.000000, -205.000000)" fill="#F35B25">
            <g id="Group-17" transform="translate(442.000000, 73.000000)">
                <g id="Input-Field" transform="translate(93.000000, 117.000000)">
                    <g id="Group-2" transform="translate(327.000000, 4.000000)">
                        <g id="ico-spinnerorange" transform="translate(11.000000, 11.000000)">
                            <path d="M8.23142857,4.29714286 L8.23142857,4.29714286 C7.84957143,4.29714286 7.53714286,3.98471429 7.53714286,3.60285714 L7.53714286,0.825714286 C7.53714286,0.443857143 7.84957143,0.131428571 8.23142857,0.131428571 L8.23142857,0.131428571 C8.61328571,0.131428571 8.92571429,0.443857143 8.92571429,0.825714286 L8.92571429,3.60285714 C8.92571429,3.98471429 8.61328571,4.29714286 8.23142857,4.29714286" id="Fill-2" opacity="0.65"></path>
                            <path d="M10.1985714,4.82424457 L10.1985714,4.82424457 C9.86786,4.633316 9.75353429,4.20656171 9.94446286,3.87585029 L11.3330343,1.47084457 C11.5239629,1.14013314 11.9507171,1.02580743 12.2814286,1.216736 L12.2814286,1.216736 C12.61214,1.40766457 12.7264657,1.83441886 12.5355371,2.16513029 L11.1469657,4.570136 C10.9560371,4.90084743 10.5292829,5.01517314 10.1985714,4.82424457" id="Fill-4" opacity="0.75"></path>
                            <path d="M11.6386126,6.26428571 L11.6386126,6.26428571 C11.447684,5.93357429 11.5620097,5.50682 11.8927211,5.31589143 L14.2977269,3.92732 C14.6284383,3.73639143 15.0551926,3.85071714 15.2461211,4.18142857 L15.2461211,4.18142857 C15.4370497,4.51214 15.322724,4.93889429 14.9920126,5.12982286 L12.5870069,6.51839429 C12.2562954,6.70932286 11.8295411,6.59499714 11.6386126,6.26428571" id="Fill-6" opacity="0.85"></path>
                            <path d="M12.1657143,8.23142857 L12.1657143,8.23142857 C12.1657143,7.84957143 12.4781429,7.53714286 12.86,7.53714286 L15.6371429,7.53714286 C16.019,7.53714286 16.3314286,7.84957143 16.3314286,8.23142857 L16.3314286,8.23142857 C16.3314286,8.61328571 16.019,8.92571429 15.6371429,8.92571429 L12.86,8.92571429 C12.4781429,8.92571429 12.1657143,8.61328571 12.1657143,8.23142857" id="Fill-8" opacity="0.9"></path>
                            <path d="M11.6386126,10.1985714 L11.6386126,10.1985714 C11.8295411,9.86786 12.2562954,9.75353429 12.5870069,9.94446286 L14.9920126,11.3330343 C15.322724,11.5239629 15.4370497,11.9507171 15.2461211,12.2814286 L15.2461211,12.2814286 C15.0551926,12.61214 14.6284383,12.7264657 14.2977269,12.5355371 L11.8927211,11.1469657 C11.5620097,10.9560371 11.447684,10.5292829 11.6386126,10.1985714" id="Fill-10" opacity="0.2"></path>
                            <path d="M10.1985714,11.6386126 L10.1985714,11.6386126 C10.5292829,11.447684 10.9560371,11.5620097 11.1469657,11.8927211 L12.5355371,14.2977269 C12.7264657,14.6284383 12.61214,15.0551926 12.2814286,15.2461211 L12.2814286,15.2461211 C11.9507171,15.4370497 11.5239629,15.322724 11.3330343,14.9920126 L9.94446286,12.5870069 C9.75353429,12.2562954 9.86786,11.8295411 10.1985714,11.6386126" id="Fill-12" opacity="0.25"></path>
                            <path d="M8.23142857,12.1657143 L8.23142857,12.1657143 C8.61328571,12.1657143 8.92571429,12.4781429 8.92571429,12.86 L8.92571429,15.6371429 C8.92571429,16.019 8.61328571,16.3314286 8.23142857,16.3314286 L8.23142857,16.3314286 C7.84957143,16.3314286 7.53714286,16.019 7.53714286,15.6371429 L7.53714286,12.86 C7.53714286,12.4781429 7.84957143,12.1657143 8.23142857,12.1657143" id="Fill-14" opacity="0.3"></path>
                            <path d="M6.26428571,11.6386126 L6.26428571,11.6386126 C6.59499714,11.8295411 6.70932286,12.2562954 6.51839429,12.5870069 L5.12982286,14.9920126 C4.93889429,15.322724 4.51214,15.4370497 4.18142857,15.2461211 L4.18142857,15.2461211 C3.85071714,15.0551926 3.73639143,14.6284383 3.92732,14.2977269 L5.31589143,11.8927211 C5.50682,11.5620097 5.93357429,11.447684 6.26428571,11.6386126" id="Fill-16" opacity="0.35"></path>
                            <path d="M4.82424457,10.1985714 L4.82424457,10.1985714 C5.01517314,10.5292829 4.90084743,10.9560371 4.570136,11.1469657 L2.16513029,12.5355371 C1.83441886,12.7264657 1.40766457,12.61214 1.216736,12.2814286 L1.216736,12.2814286 C1.02580743,11.9507171 1.14013314,11.5239629 1.47084457,11.3330343 L3.87585029,9.94446286 C4.20656171,9.75353429 4.633316,9.86786 4.82424457,10.1985714" id="Fill-18" opacity="0.4"></path>
                            <path d="M4.29714286,8.23142857 L4.29714286,8.23142857 C4.29714286,8.61328571 3.98471429,8.92571429 3.60285714,8.92571429 L0.825714286,8.92571429 C0.443857143,8.92571429 0.131428571,8.61328571 0.131428571,8.23142857 L0.131428571,8.23142857 C0.131428571,7.84957143 0.443857143,7.53714286 0.825714286,7.53714286 L3.60285714,7.53714286 C3.98471429,7.53714286 4.29714286,7.84957143 4.29714286,8.23142857" id="Fill-20" opacity="0.45"></path>
                            <path d="M4.82424457,6.26428571 L4.82424457,6.26428571 C4.633316,6.59499714 4.20656171,6.70932286 3.87585029,6.51839429 L1.47084457,5.12982286 C1.14013314,4.93889429 1.02580743,4.51214 1.216736,4.18142857 L1.216736,4.18142857 C1.40766457,3.85071714 1.83441886,3.73639143 2.16513029,3.92732 L4.570136,5.31589143 C4.90084743,5.50682 5.01517314,5.93357429 4.82424457,6.26428571" id="Fill-22" opacity="0.5"></path>
                            <path d="M6.26428571,4.82424457 L6.26428571,4.82424457 C5.93357429,5.01517314 5.50682,4.90084743 5.31589143,4.570136 L3.92732,2.16513029 C3.73639143,1.83441886 3.85071714,1.40766457 4.18142857,1.216736 L4.18142857,1.216736 C4.51214,1.02580743 4.93889429,1.14013314 5.12982286,1.47084457 L6.51839429,3.87585029 C6.70932286,4.20656171 6.59499714,4.633316 6.26428571,4.82424457" id="Fill-24" opacity="0.55"></path>
                        </g>
                    </g>
                </g>
            </g>
        </g>
    </g>
</svg>