<?xml version="1.0" encoding="UTF-8" standalone="no"?>
<svg width="14px" height="6px" viewBox="0 0 14 6" version="1.1" xmlns="http://www.w3.org/2000/svg" xmlns:xlink="http://www.w3.org/1999/xlink">
    <!-- Generator: Sketch 43.2 (39069) - http://www.bohemiancoding.com/sketch -->
    <title>ico-dashboard</title>
    <desc>Created with Sketch.</desc>
    <defs></defs>
    <g id="Page-1" stroke="none" stroke-width="1" fill="none" fill-rule="evenodd">
        <g id="Facile-Content-Cards" transform="translate(-21.000000, -173.000000)">
            <g id="Group-13">
                <g id="Group-8" transform="translate(0.000000, 141.000000)">
                    <g id="Group-7" transform="translate(20.000000, 27.000000)">
                        <g id="ico-dashboard">
                            <rect id="Bound" x="0" y="0" width="16" height="16"></rect>
                            <path d="M13.4891189,5.0167459 C12.6710604,5.0167459 12.0055283,5.61642623 12.0055283,6.35354098 C12.0055283,6.62238525 12.0943587,6.8727377 12.2465302,7.08256557 L10.6436803,8.52681967 C10.4107836,8.38970492 10.1329396,8.30966393 9.8345731,8.30966393 C9.52539961,8.30966393 9.23805848,8.39543443 9.00014035,8.54181967 L7.38077973,7.08246721 C7.53292398,6.87263934 7.62169981,6.62231148 7.62169981,6.35351639 C7.62169981,5.61640164 6.95616764,5.01672131 6.13810916,5.01672131 C5.32005068,5.01672131 4.65451852,5.61640164 4.65451852,6.35351639 C4.65451852,6.62231148 4.74332164,6.87256557 4.89541131,7.08239344 L3.29250682,8.52672131 C3.05966472,8.38965574 2.78187524,8.30966393 2.48359064,8.30966393 C1.66553216,8.30966393 1,8.90936885 1,9.64648361 C1,10.3835984 1.66553216,10.9832787 2.48359064,10.9832787 C3.30164912,10.9832787 3.96718129,10.3835984 3.96718129,9.64648361 C3.96718129,9.37763934 3.87835088,9.12728689 3.72617934,8.91743443 L5.32902924,7.47318033 C5.56192593,7.61029508 5.83976998,7.69033607 6.13813645,7.69033607 C6.43647563,7.69033607 6.71431969,7.61029508 6.94718908,7.47318033 L8.57550097,8.94057377 C8.4334269,9.14560656 8.35100975,9.38747541 8.35100975,9.64645902 C8.35100975,10.3835738 9.01654191,10.9832541 9.83460039,10.9832541 C10.6526589,10.9832541 11.318191,10.3835738 11.318191,9.64645902 C11.318191,9.37766393 11.2293879,9.12738525 11.0772982,8.91758197 L12.68023,7.4732541 C12.9130994,7.61031967 13.1908889,7.69031148 13.4891462,7.69031148 C14.3072047,7.69031148 14.9727368,7.09063115 14.9727368,6.35351639 C14.9727368,5.61637705 14.3071774,5.0167459 13.4891189,5.0167459 Z M2.48359064,10.4307131 C2.00366082,10.4307131 1.61321637,10.0789016 1.61321637,9.64648361 C1.61321637,9.21404098 2.00366082,8.86222951 2.48359064,8.86222951 C2.96349318,8.86222951 3.35396491,9.21404098 3.35396491,9.64648361 C3.35396491,10.0789016 2.96352047,10.4307131 2.48359064,10.4307131 Z M6.13813645,7.13777049 C5.65823392,7.13777049 5.26776218,6.78595902 5.26776218,6.35351639 C5.26776218,5.92109836 5.65820663,5.5692623 6.13813645,5.5692623 C6.61806628,5.5692623 7.00851072,5.92107377 7.00851072,6.35351639 C7.00851072,6.78595902 6.61806628,7.13777049 6.13813645,7.13777049 Z M9.8345731,10.4307131 C9.35467057,10.4307131 8.96419883,10.0789016 8.96419883,9.64645902 C8.96419883,9.21401639 9.35464327,8.86220492 9.8345731,8.86220492 C10.3144756,8.86220492 10.7049474,9.21401639 10.7049474,9.64645902 C10.7049201,10.0789016 10.3144756,10.4307131 9.8345731,10.4307131 Z M13.4891189,7.13777049 C13.0092164,7.13777049 12.6187446,6.78595902 12.6187446,6.35351639 C12.6187446,5.92109836 13.0091891,5.5692623 13.4891189,5.5692623 C13.9690214,5.5692623 14.3594932,5.92107377 14.3594932,6.35351639 C14.3594932,6.78595902 13.9690214,7.13777049 13.4891189,7.13777049 Z" id="Shape" fill="#000000"></path>
                            <path d="M5.82424172,8.41107377 C5.70449123,8.30319672 5.51037427,8.30319672 5.39062378,8.41107377 L4.76692788,8.97305738 C4.64720468,9.08093443 4.64720468,9.25586885 4.76695517,9.36377049 C4.82683041,9.41772131 4.90529045,9.44469672 4.98375049,9.44469672 C5.06221053,9.44469672 5.14069786,9.41769672 5.20054581,9.36377049 L5.82424172,8.80178689 C5.94401949,8.69390984 5.94401949,8.51895082 5.82424172,8.41107377 Z" id="Shape" fill="#000000"></path>
                            <path d="M11.2055906,6.64604098 C11.0858402,6.53816393 10.8917505,6.53816393 10.7719454,6.64606557 L10.1482495,7.20804918 C10.0285263,7.31592623 10.0285263,7.49086066 10.1482495,7.5987623 C10.208152,7.65268852 10.2866121,7.67966393 10.3650721,7.67966393 C10.4435595,7.67966393 10.5219922,7.65266393 10.5818674,7.5987377 L11.2055634,7.0367541 C11.3253138,6.92885246 11.3253138,6.75391803 11.2055906,6.64604098 Z" id="Shape" fill="#000000"></path>
                        </g>
                    </g>
                </g>
            </g>
        </g>
    </g>
</svg>