<?xml version="1.0" encoding="UTF-8" standalone="no"?>
<svg width="10px" height="9px" viewBox="0 0 10 9" version="1.1" xmlns="http://www.w3.org/2000/svg" xmlns:xlink="http://www.w3.org/1999/xlink">
    <!-- Generator: Sketch 43.2 (39069) - http://www.bohemiancoding.com/sketch -->
    <title>ico-account</title>
    <desc>Created with Sketch.</desc>
    <defs></defs>
    <g id="Page-1" stroke="none" stroke-width="1" fill="none" fill-rule="evenodd">
        <g id="Facile-Content-Cards" transform="translate(-23.000000, -270.000000)">
            <g id="Group-13">
                <g id="Group-8" transform="translate(0.000000, 141.000000)">
                    <g id="ico-account" transform="translate(20.000000, 125.500000)">
                        <rect id="Bound" x="0" y="0" width="16" height="16"></rect>
                        <g id="gear39" transform="translate(3.500000, 3.500000)" fill="#000000">
                            <g id="Capa_1">
                                <g id="Settings">
                                    <path d="M8.60531152,3.83696297 C8.59166097,3.71561755 8.45017695,3.62443182 8.32783584,3.62443182 C7.93229086,3.62443182 7.58129487,3.39217963 7.43409368,3.03299331 C7.28371271,2.66510275 7.38067985,2.2360577 7.67546766,1.96564818 C7.76825933,1.88082201 7.77953309,1.73882409 7.70170885,1.64018677 C7.49926305,1.38310662 7.26916283,1.15088654 7.01792833,0.949629145 C6.91954796,0.870680743 6.77520535,0.881665428 6.6898974,0.976127286 C6.43262454,1.26105457 5.97049695,1.36695078 5.61339836,1.21795093 C5.24178201,1.06162796 5.00744208,0.685065279 5.03037502,0.280848178 C5.03792297,0.153881933 4.9451313,0.0434890706 4.81855048,0.0287464684 C4.49614037,-0.00854364312 4.17090379,-0.00969992565 3.84753011,0.0261769517 C3.72239465,0.0399881041 3.62960297,0.147779331 3.63381056,0.273139628 C3.64787866,0.673373978 3.41071227,1.04335227 3.04278959,1.19405442 C2.68996283,1.33817219 2.23107926,1.23317532 1.9743203,0.950785428 C1.88946201,0.857768922 1.74746409,0.846334572 1.64860193,0.923387955 C1.38991584,1.12634766 1.15464446,1.35876045 0.950335762,1.61372074 C0.870648625,1.71283985 0.882372045,1.85650796 0.976095167,1.94178379 C1.27650379,2.21383138 1.37350305,2.64660223 1.21743703,3.01873249 C1.06843717,3.37351851 0.700032714,3.60217338 0.278278662,3.60217338 C0.141419777,3.59777309 0.0439387361,3.68963331 0.0289713011,3.81406216 C-0.00899330855,4.13833517 -0.00944297398,4.4687429 0.0271084015,4.79564967 C0.0406626022,4.917509 0.186450558,5.00789175 0.310140669,5.00789175 C0.685996729,4.99828818 1.04685323,5.23099004 1.19822989,5.59936238 C1.34912476,5.96725294 1.2521255,6.39604104 0.95688803,6.66667539 C0.864546022,6.75150156 0.852822602,6.89327465 0.93064684,6.99191197 C1.13119762,7.24735405 1.36132996,7.47979896 1.61346379,7.68272654 C1.71235807,7.76241368 1.856251,7.75117204 1.94197651,7.65671019 C2.20021294,7.37107628 2.6623084,7.26537279 3.01799375,7.41466171 C3.39054156,7.5705029 3.62488149,7.94703346 3.60194855,8.35147539 C3.59446483,8.47850587 3.68770617,8.58909145 3.81377309,8.60360922 C3.97870394,8.62284848 4.14463048,8.63245204 4.31100669,8.63245204 C4.46893561,8.63245204 4.62689665,8.62377993 4.78482558,8.60621086 C4.90999316,8.5923997 5.00272059,8.48460848 4.99851301,8.35902335 C4.98402736,7.95901383 5.2216113,7.58903554 5.58905219,7.43859033 C5.94425576,7.293509 6.40121219,7.39969428 6.65800327,7.68179509 C6.74334335,7.77461888 6.88434558,7.7858284 6.98375375,7.70903197 C7.24195807,7.50655405 7.47674766,7.27433398 7.68201993,7.01866706 C7.76167494,6.91977279 7.75043331,6.77587985 7.6562284,6.69063613 C7.35581978,6.41858855 7.25833874,5.98575346 7.41440476,5.61388015 C7.56112416,5.26381561 7.91584595,5.02876907 8.29738706,5.02876907 L8.35076877,5.03015019 C8.47452312,5.04020342 8.58838483,4.94487435 8.60338439,4.81855048 C8.64141323,4.4939884 8.6418629,4.16386974 8.60531152,3.83696297 L8.60531152,3.83696297 Z M4.3230513,5.76506409 C3.52913487,5.76506409 2.88335108,5.1192803 2.88335108,4.32536387 C2.88335108,3.53147955 3.52913487,2.88566364 4.3230513,2.88566364 C5.11693561,2.88566364 5.76271941,3.53147955 5.76271941,4.32536387 C5.76271941,5.1192803 5.11693561,5.76506409 4.3230513,5.76506409 L4.3230513,5.76506409 Z" id="Shape"></path>
                                </g>
                            </g>
                        </g>
                    </g>
                </g>
            </g>
        </g>
    </g>
</svg>