<?xml version="1.0" encoding="UTF-8" standalone="no"?>
<svg width="8px" height="11px" viewBox="0 0 8 11" version="1.1" xmlns="http://www.w3.org/2000/svg" xmlns:xlink="http://www.w3.org/1999/xlink">
    <!-- Generator: Sketch 43.2 (39069) - http://www.bohemiancoding.com/sketch -->
    <title>ico-reports</title>
    <desc>Created with Sketch.</desc>
    <defs></defs>
    <g id="Page-1" stroke="none" stroke-width="1" fill="none" fill-rule="evenodd">
        <g id="Facile-Content-Cards" transform="translate(-24.000000, -203.000000)">
            <g id="Group-13">
                <g id="Group-8" transform="translate(0.000000, 141.000000)">
                    <g id="ico-reports" transform="translate(20.000000, 59.500000)">
                        <rect id="Bound" x="0" y="0" width="16" height="16"></rect>
                        <path d="M11.1111111,3.90909091 L9.25333333,3.90909091 C9.06666667,3.38181818 8.57777778,3 8,3 C7.42222222,3 6.93333333,3.38181818 6.74666667,3.90909091 L4.88888889,3.90909091 C4.4,3.90909091 4,4.31818182 4,4.81818182 L4,12.0909091 C4,12.5909091 4.4,13 4.88888889,13 L11.1111111,13 C11.6,13 12,12.5909091 12,12.0909091 L12,4.81818182 C12,4.31818182 11.6,3.90909091 11.1111111,3.90909091 L11.1111111,3.90909091 Z M8,3.90909091 C8.24444444,3.90909091 8.44444444,4.11363636 8.44444444,4.36363636 C8.44444444,4.61363636 8.24444444,4.81818182 8,4.81818182 C7.75555556,4.81818182 7.55555556,4.61363636 7.55555556,4.36363636 C7.55555556,4.11363636 7.75555556,3.90909091 8,3.90909091 L8,3.90909091 Z M11.1111111,12.0909091 L4.88888889,12.0909091 L4.88888889,4.81818182 L5.77777778,4.81818182 L5.77777778,6.18181818 L10.2222222,6.18181818 L10.2222222,4.81818182 L11.1111111,4.81818182 L11.1111111,12.0909091 L11.1111111,12.0909091 Z" id="Fill-86" fill="#000000"></path>
                    </g>
                </g>
            </g>
        </g>
    </g>
</svg>