<?xml version="1.0" encoding="UTF-8" standalone="no"?>
<svg width="11px" height="10px" viewBox="0 0 11 10" version="1.1" xmlns="http://www.w3.org/2000/svg" xmlns:xlink="http://www.w3.org/1999/xlink">
    <!-- Generator: Sketch 43.2 (39069) - http://www.bohemiancoding.com/sketch -->
    <title>ico-seo</title>
    <desc>Created with Sketch.</desc>
    <defs></defs>
    <g id="Page-1" stroke="none" stroke-width="1" fill="none" fill-rule="evenodd">
        <g id="Facile-Content-Cards" transform="translate(-23.000000, -303.000000)">
            <g id="Group-13">
                <g id="Group-8" transform="translate(0.000000, 141.000000)">
                    <g id="ico-seo" transform="translate(20.000000, 158.500000)">
                        <rect id="Bound" x="0" y="0" width="16" height="16"></rect>
                        <g id="gear39" transform="translate(3.500000, 3.500000)" fill="#000000">
                            <g id="Capa_1">
                                <g id="Settings">
                                    <g id="shape" transform="translate(0.000090, 0.000006)">
                                        <g id="Capa_1">
                                            <g id="business">
                                                <g id="Capa_1">
                                                    <g id="Layer_1_110_">
                                                        <g id="Group">
                                                            <path d="M3.73765957,3.39106383 C3.62191489,3.48914894 3.51829787,3.60042553 3.42638298,3.72191489 L2.81893617,3.14765957 C2.68021277,3.23446809 2.51765957,3.28680851 2.34191489,3.28680851 C1.84340426,3.28680851 1.43914894,2.88297872 1.43914894,2.38446809 C1.43914894,1.88595745 1.84340426,1.48255319 2.34191489,1.48255319 C2.84042553,1.48255319 3.24404255,1.88617021 3.24404255,2.38446809 C3.24404255,2.54170213 3.20021277,2.68744681 3.1293617,2.81617021 L3.73765957,3.39106383 Z M6.3106383,3.31914894 C6.19021277,3.22744681 6.05957447,3.14914894 5.92106383,3.08638298 L6.72680851,1.73 C6.56553191,1.56680851 6.46574468,1.34319149 6.46574468,1.09574468 C6.46574468,0.597234043 6.86914894,0.193829787 7.36765957,0.193829787 C7.86702128,0.193829787 8.2706383,0.597446809 8.2706383,1.09574468 C8.2706383,1.59425532 7.86702128,1.99808511 7.36765957,1.99808511 C7.28106383,1.99808511 7.19851064,1.98170213 7.11893617,1.95893617 L6.3106383,3.31914894 Z M9.09829787,4.45787234 C9.59659574,4.45787234 10,4.86170213 10,5.35978723 C10,5.85808511 9.59659574,6.26148936 9.09829787,6.26148936 C8.64829787,6.26148936 8.27744681,5.9312766 8.20957447,5.5006383 L7.08702128,5.38978723 C7.11617021,5.25170213 7.13234043,5.1087234 7.13234043,4.96234043 C7.13234043,4.95404255 7.13106383,4.94595745 7.13106383,4.93744681 L8.25404255,5.04829787 C8.38148936,4.70446809 8.71021277,4.45787234 9.09829787,4.45787234 Z M5.9993617,8.00510638 C6.48489362,8.01957447 6.87468085,8.41553191 6.87404255,8.90468085 C6.87404255,9.40276596 6.4706383,9.80617021 5.97234043,9.80617021 C5.47297872,9.80617021 5.06957447,9.40297872 5.06957447,8.90468085 C5.06957447,8.55659574 5.26851064,8.25851064 5.55680851,8.10765957 L5.30531915,7.01042553 C5.45914894,6.99276596 5.60659574,6.95744681 5.74829787,6.90808511 L5.9993617,8.00510638 Z M3.05468085,5.39787234 C3.08723404,5.54829787 3.13744681,5.69191489 3.2006383,5.82829787 L1.79829787,6.29787234 C1.8,6.31829787 1.80446809,6.33744681 1.80446809,6.35829787 C1.80446809,6.85723404 1.4,7.26085106 0.901914894,7.26085106 C0.403404255,7.26085106 0,6.85723404 0,6.35829787 C0,5.86 0.403404255,5.45638298 0.901914894,5.45638298 C1.21787234,5.45638298 1.49553191,5.61978723 1.65680851,5.86617021 L3.05468085,5.39787234 Z M5.07021277,6.5093617 C4.21581651,6.5093617 3.52319149,5.81673668 3.52319149,4.96234043 C3.52319149,4.10794417 4.21581651,3.41531915 5.07021277,3.41531915 C5.92460902,3.41531915 6.61723404,4.10794417 6.61723404,4.96234043 C6.61723404,5.81673668 5.92460902,6.5093617 5.07021277,6.5093617 Z" id="Combined-Shape"></path>
                                                        </g>
                                                    </g>
                                                </g>
                                            </g>
                                        </g>
                                    </g>
                                </g>
                            </g>
                        </g>
                    </g>
                </g>
            </g>
        </g>
    </g>
</svg>